<svg width="130" height="130" viewBox="0 0 130 130" fill="none" xmlns="http://www.w3.org/2000/svg">
<g clip-path="url(#clip0_320_2408)">
<g clip-path="url(#clip1_320_2408)">
<g clip-path="url(#clip2_320_2408)">
<g clip-path="url(#clip3_320_2408)">
<g clip-path="url(#clip4_320_2408)">
<g clip-path="url(#clip5_320_2408)">
<g clip-path="url(#clip6_320_2408)">
<path d="M59.8177 65.5891L75.2134 57.3397L63.6586 68.4433L63.1147 73.5229L66.2616 70.4779L76.5402 78.8392L81.717 51.1432L52.9203 63.1248L59.8177 65.5891Z" fill="#333c4d"/>
<path d="M90.5341 34.3587H39.4658C36.6575 34.3587 34.3586 36.6576 34.3586 39.4658V90.5342C34.3586 93.3424 36.6575 95.6413 39.4658 95.6413H90.5341C93.3424 95.6413 95.6412 93.3424 95.6412 90.5342V39.4658C95.6412 36.6576 93.3424 34.3587 90.5341 34.3587ZM80.7151 84.3101C80.7151 84.3101 79.6978 87.0081 76.9002 85.7143L66.5557 77.3009L59.9227 83.7195C59.9227 83.7195 59.4041 84.1362 58.8357 83.8743C58.8357 83.8743 58.3469 83.8245 57.7341 81.7799C57.1251 79.7277 54.0235 68.9428 54.0235 68.9428L43.7548 65.275C43.7548 65.275 42.1783 64.6813 42.0289 63.3867C41.875 62.0929 43.8092 61.3897 43.8092 61.3897L84.6241 44.4037C84.6241 44.4037 87.9809 42.8402 87.9809 45.4286L80.7151 84.3101Z" fill="#333c4d"/>
</g>
</g>
<path d="M15.9385 86.6269C15.9831 86.7611 15.9023 86.8618 15.6966 86.9296C15.5536 86.977 15.4018 86.9923 15.2411 86.976C15.0814 86.9626 14.9663 86.9148 14.8962 86.8321L14.8599 86.4375C14.755 85.3882 14.6357 84.5998 14.5011 84.0724L6.88444 86.6004C6.19869 86.8265 5.71677 87.0531 5.43819 87.2806C5.20373 87.1399 5.04587 86.9477 4.96509 86.703C4.90334 86.5155 4.90891 86.3418 4.9818 86.1821C5.05469 86.0229 5.18516 85.9119 5.37273 85.8502L14.1296 82.946C13.9908 82.615 13.8353 82.2947 13.6635 81.9845C13.494 81.6707 13.267 81.2728 12.9828 80.7918L12.8092 80.5067C12.8176 80.4018 12.8816 80.2945 13.0009 80.1859C13.1212 80.08 13.2531 80.0034 13.3961 79.9565C13.6017 79.8887 13.7262 79.9203 13.7693 80.0512L15.9385 86.6269ZM11.0092 97.5423C11.0073 97.6305 10.9664 97.721 10.8857 97.8129C10.8039 97.9025 10.7055 97.9754 10.5899 98.0325C10.4659 98.0938 10.3522 98.1217 10.2482 98.117C10.1474 98.111 10.0755 98.0641 10.0323 97.9768L7.94627 93.7472C7.85294 93.5582 7.83298 93.3827 7.88591 93.2202C7.93884 93.0577 8.05769 92.931 8.24387 92.839L15.2072 89.3889C15.7839 89.1043 16.2129 88.8211 16.4938 88.5393C16.6618 88.6103 16.7965 88.6995 16.8986 88.8067C17.0017 88.9168 17.1103 89.0872 17.2241 89.3179L19.2061 93.3368C19.2368 93.3985 19.2307 93.4612 19.1885 93.5239C19.1504 93.5884 19.0859 93.6427 18.9958 93.6873C18.8723 93.7481 18.7302 93.7834 18.5701 93.7922C18.4089 93.7983 18.2882 93.7667 18.2088 93.6975C17.8049 92.3186 17.3299 91.0641 16.783 89.9345L13.3255 91.6398L14.9393 94.9112C14.8446 94.9892 14.7439 95.0546 14.6371 95.1075C14.5303 95.16 14.417 95.2004 14.2977 95.2278L12.6903 91.9685L8.75552 93.9092C9.3108 95.0138 10.0625 96.2251 11.0092 97.5423ZM21.0698 96.9874L13.6514 102.174C14.3214 103.119 15.1682 104.101 16.192 105.12C16.2003 105.198 16.1692 105.29 16.0982 105.397C16.0258 105.502 15.9366 105.59 15.8308 105.664C15.7101 105.748 15.5963 105.797 15.4904 105.809C15.3846 105.822 15.3038 105.788 15.2481 105.709L12.7804 102.167C12.6602 101.995 12.6142 101.824 12.6421 101.656C12.6699 101.487 12.7688 101.344 12.9383 101.225L19.403 96.7033C19.9638 96.3119 20.3622 95.9558 20.5976 95.635C20.8604 95.7046 21.0651 95.8448 21.2123 96.0561C21.3307 96.226 21.3785 96.3932 21.3558 96.5584C21.3349 96.726 21.2397 96.869 21.0698 96.9874ZM22.2955 111.844C22.3192 111.929 22.3057 112.028 22.2556 112.139C22.2026 112.249 22.1297 112.347 22.0355 112.435C21.9347 112.529 21.834 112.589 21.7332 112.614C21.6348 112.638 21.5522 112.614 21.4858 112.543L18.265 109.097C18.1216 108.944 18.0514 108.782 18.0547 108.611C18.0584 108.44 18.1359 108.284 18.2873 108.142L23.9544 102.825C24.4247 102.386 24.7529 101.991 24.9405 101.64C25.1216 101.659 25.2767 101.705 25.4053 101.778C25.5357 101.854 25.6889 101.985 25.8649 102.174L28.925 105.447C28.9719 105.497 28.9844 105.559 28.9622 105.632C28.9441 105.704 28.8981 105.775 28.8247 105.843C28.724 105.937 28.5982 106.012 28.4477 106.067C28.295 106.119 28.1706 106.124 28.0744 106.081C27.2889 104.878 26.4713 103.815 25.6207 102.891L22.8048 105.524L25.2957 108.189C25.2279 108.291 25.1504 108.382 25.0636 108.464C24.9763 108.545 24.8797 108.616 24.7729 108.677L22.2918 106.023L19.0868 109.018C19.9378 109.915 21.0076 110.857 22.2955 111.844ZM27.5679 117.659C26.5144 116.857 25.9828 115.876 25.974 114.718C25.9657 113.564 26.4824 112.302 27.5243 110.935C28.568 109.564 29.6553 108.732 30.7868 108.437C31.9178 108.143 33.0066 108.394 34.0526 109.191C34.4472 109.491 34.7806 109.83 35.0536 110.208C35.3257 110.58 35.5007 110.941 35.5792 111.288C35.6595 111.633 35.6219 111.909 35.4659 112.113C35.3405 112.278 35.1646 112.361 34.9389 112.363C34.7109 112.366 34.4927 112.269 34.2847 112.072C34.5341 111.615 34.6088 111.175 34.509 110.751C34.4068 110.326 34.151 109.958 33.7415 109.646C32.2312 108.496 30.5082 109.192 28.5726 111.733C26.6449 114.264 26.4323 116.103 27.9352 117.247C28.6116 117.762 29.25 117.879 29.8503 117.599C30.4525 117.316 30.9864 116.869 31.4521 116.257C32.1783 115.304 32.2981 114.543 31.8115 113.975C31.9308 113.88 32.0682 113.845 32.2238 113.868C32.3793 113.893 32.5409 113.968 32.708 114.095C33.0599 114.363 33.2415 114.728 33.2526 115.19C33.261 115.65 33.0284 116.191 32.5553 116.813C32.1597 117.332 31.6922 117.741 31.1527 118.04C30.6159 118.342 30.0402 118.471 29.4251 118.429C28.8085 118.389 28.1896 118.133 27.5679 117.659ZM40.8172 124.031C40.8131 124.163 40.7792 124.29 40.7155 124.412C40.6064 124.625 40.4337 124.743 40.1974 124.77C39.9597 124.799 39.7531 124.768 39.5776 124.678C39.254 124.511 39.0506 124.275 38.9675 123.971C38.8844 123.667 38.8686 123.239 38.9206 122.687L39.117 120.817C39.1481 120.456 39.1569 120.166 39.143 119.946C39.1258 119.726 39.0441 119.502 38.8965 119.274C38.7451 119.047 38.4893 118.841 38.1299 118.656L37.1614 118.14L35.8364 120.708C35.7273 120.92 35.6144 121.169 35.4984 121.456C35.3869 121.74 35.3206 121.979 35.3001 122.169C35.2068 122.199 35.0954 122.21 34.9649 122.203C34.833 122.198 34.7017 122.162 34.5703 122.095C34.3864 121.999 34.2648 121.869 34.2049 121.705C34.145 121.54 34.1566 121.367 34.2388 121.187L37.9382 114.017C38.0473 113.805 38.1592 113.554 38.2739 113.264C38.3927 112.972 38.467 112.722 38.4963 112.515C38.9633 112.513 39.6588 112.749 40.5818 113.226C41.8368 113.873 42.6632 114.547 43.0611 115.246C43.4553 115.947 43.4256 116.737 42.9724 117.616C42.6456 118.249 42.1869 118.69 41.5954 118.939C41.0057 119.193 40.3622 119.239 39.6653 119.077C39.9263 119.325 40.0939 119.609 40.1682 119.93C40.2415 120.253 40.2652 120.631 40.2401 121.063L40.0985 122.961C40.0734 123.269 40.0804 123.502 40.1189 123.66C40.1589 123.821 40.2341 123.936 40.3441 124.003C40.5029 124.085 40.6608 124.094 40.8172 124.031ZM37.4075 117.663L38.4303 118.207C39.0803 118.521 39.7132 118.581 40.3288 118.386C40.9477 118.194 41.4264 117.768 41.7662 117.11C42.139 116.388 42.2184 115.754 42.0049 115.21C41.7871 114.667 41.2476 114.173 40.3859 113.728C40.0456 113.553 39.7898 113.437 39.6175 113.38L37.4075 117.663ZM50.5839 127.304C50.5895 127.648 50.6336 127.905 50.7158 128.074C50.5013 128.205 50.252 128.227 49.9669 128.139C49.7872 128.083 49.6438 127.995 49.5365 127.873C49.4297 127.751 49.3796 127.61 49.387 127.448L49.3893 124.375L45.6783 123.23L44.2381 125.377C44.1174 125.566 44.0408 125.713 44.0083 125.818C43.9618 125.968 43.9572 126.085 43.9939 126.169C43.7719 126.185 43.5514 126.16 43.3323 126.093C42.8977 125.958 42.7343 125.716 42.8424 125.365C42.8805 125.242 42.9943 125.044 43.1837 124.771L48.9074 116.882C49.257 116.855 49.5881 116.89 49.8996 116.986C50.2687 117.099 50.4512 117.312 50.447 117.623L50.5839 127.304ZM46.1008 122.612L49.4023 123.63L49.4074 117.671L46.1008 122.612ZM63.9786 128.211C63.8955 128.919 63.8932 129.451 63.9716 129.807C63.7451 129.961 63.5041 130.023 63.2483 129.993C63.0612 129.971 62.9154 129.894 62.8109 129.761C62.7097 129.63 62.6702 129.465 62.6934 129.269L63.6327 120.972L59.5665 127.765C59.319 127.828 59.0971 127.847 58.9007 127.824C58.7261 127.804 58.5743 127.751 58.4452 127.667C57.5793 125.432 56.6995 122.909 55.8067 120.097L54.9933 127.158C54.9069 127.893 54.906 128.455 54.9896 128.844C54.8387 128.947 54.6697 128.987 54.4826 128.965C54.1989 128.932 54.0786 128.733 54.1213 128.368L55.0578 120.218C55.1395 119.522 55.1734 118.975 55.1604 118.575C55.2927 118.471 55.5616 118.443 55.9664 118.49C56.2315 118.521 56.4279 118.623 56.5565 118.796L57.4739 121.52L59.2721 126.716C59.5191 126.309 60.3832 124.842 61.8642 122.314C62.2384 121.653 62.5639 121.089 62.8397 120.623C63.1122 120.159 63.3346 119.782 63.5078 119.492C63.7228 119.438 63.9688 119.428 64.246 119.461C64.4299 119.482 64.5896 119.535 64.7247 119.621C64.8603 119.706 64.9271 119.798 64.9248 119.895L63.9786 128.211ZM79.9356 127.179C80.0977 127.481 80.2537 127.69 80.4046 127.803C80.2736 128.018 80.0614 128.151 79.768 128.203C79.5823 128.235 79.4142 128.222 79.2638 128.163C79.1129 128.103 79.0038 128 78.9365 127.853L77.5348 125.118L73.7109 125.794L73.4096 128.362C73.3887 128.585 73.3878 128.752 73.4068 128.859C73.4342 129.014 73.4834 129.12 73.554 129.178C73.3641 129.294 73.1566 129.372 72.9309 129.412C72.4829 129.492 72.2271 129.35 72.163 128.989C72.1407 128.862 72.1514 128.634 72.1951 128.304L73.684 118.672C73.983 118.489 74.2932 118.368 74.6144 118.311C74.9947 118.244 75.2538 118.35 75.3921 118.628L79.9356 127.179ZM73.8038 125.051L77.2061 124.449L74.4895 119.146L73.8038 125.051ZM84.0362 126.962C83.8407 127.03 83.6536 127.032 83.4749 126.969C83.4693 126.592 83.3412 126.045 83.0904 125.328L80.8331 118.917C80.5717 118.17 80.3456 117.633 80.1543 117.304C80.2244 117.173 80.3855 117.064 80.6376 116.975C80.8243 116.91 80.945 116.895 81.0002 116.929C85.3227 120.057 88.0959 122.146 89.3202 123.194L86.6418 116.306C86.5132 115.996 86.4421 115.716 86.4287 115.468C86.4147 115.22 86.4663 115.039 86.5828 114.926C86.6181 114.903 86.6831 114.875 86.7778 114.842C86.8995 114.8 87.0086 114.784 87.1047 114.793C87.1311 114.897 87.2008 115.082 87.3141 115.348L87.4844 115.792L89.9818 122.932C90.2335 123.652 90.4401 124.166 90.6017 124.475C90.5798 124.536 90.5232 124.598 90.4317 124.66C90.3384 124.726 90.24 124.777 90.136 124.813C90.0445 124.845 89.9442 124.859 89.8361 124.853C88.5323 124.063 87.1218 123.091 85.6055 121.94C84.0859 120.789 82.739 119.718 81.5639 118.726L84.3728 126.071C84.454 126.276 84.4573 126.46 84.3826 126.626C84.3115 126.794 84.1959 126.906 84.0362 126.962ZM100.262 118.083C100.519 118.31 100.739 118.45 100.92 118.503C100.872 118.75 100.72 118.949 100.464 119.101C100.302 119.197 100.139 119.243 99.9774 119.241C99.8154 119.238 99.6771 119.179 99.5624 119.065L97.2902 116.996L93.9468 118.971L94.5657 121.481C94.6247 121.698 94.6818 121.854 94.738 121.948C94.8174 122.083 94.9009 122.165 94.9873 122.194C94.8503 122.37 94.6832 122.516 94.4863 122.633C94.0945 122.864 93.8052 122.822 93.6186 122.506C93.5531 122.395 93.483 122.178 93.4083 121.854L91.4221 112.311C91.6379 112.034 91.8859 111.813 92.1668 111.647C92.4992 111.45 92.7792 111.458 93.0062 111.67L100.262 118.083ZM93.7732 118.243L96.7479 116.485L92.3432 112.472L93.7732 118.243ZM98.4044 108.264L104.09 115.307C104.986 114.574 105.907 113.662 106.853 112.57C106.931 112.556 107.025 112.581 107.136 112.644C107.245 112.71 107.34 112.793 107.421 112.893C107.513 113.008 107.569 113.118 107.589 113.222C107.609 113.327 107.582 113.41 107.505 113.471L104.143 116.177C103.979 116.309 103.812 116.366 103.642 116.35C103.472 116.334 103.322 116.245 103.192 116.084L98.2354 109.946C97.8064 109.413 97.4239 109.04 97.0877 108.828C97.1388 108.561 97.2651 108.347 97.4652 108.186C97.6268 108.056 97.7907 107.997 97.9569 108.008C98.1254 108.017 98.2744 108.102 98.4044 108.264ZM107.619 100.002L109.683 105.77L111.171 107.114C111.677 107.571 112.112 107.877 112.477 108.035C112.483 108.132 112.465 108.243 112.424 108.367C112.386 108.493 112.318 108.611 112.219 108.721C112.08 108.875 111.924 108.958 111.752 108.971C111.581 108.982 111.423 108.921 111.276 108.789L108.888 106.65C108.747 106.628 108.645 106.61 108.582 106.595L102.793 104.942C102.574 104.876 102.289 104.845 101.939 104.849C101.925 104.718 101.94 104.571 101.983 104.407C102.021 104.242 102.103 104.091 102.23 103.951C102.369 103.797 102.518 103.713 102.68 103.698C102.842 103.683 103.035 103.712 103.261 103.786L108.779 105.492L106.698 100.516C106.595 100.287 106.5 100.133 106.412 100.053C106.302 99.9542 106.188 99.898 106.069 99.8841C106.129 99.6965 106.245 99.5076 106.418 99.3163C106.542 99.1789 106.678 99.1102 106.827 99.1092C106.973 99.1106 107.113 99.1622 107.244 99.2648C107.384 99.3906 107.509 99.6367 107.619 100.002ZM118.227 100.937C117.621 101.853 116.993 102.43 116.341 102.669C115.69 102.908 115.098 102.851 114.564 102.498C114.085 102.181 113.998 101.792 114.303 101.331C114.363 101.24 114.417 101.168 114.463 101.115C114.558 101.239 114.722 101.366 114.955 101.498C115.451 101.789 115.955 101.851 116.467 101.686C116.98 101.521 117.435 101.137 117.833 100.535C118.193 99.9909 118.354 99.4723 118.315 98.9797C118.275 98.4829 118.008 98.0711 117.513 97.7438C117.191 97.5307 116.867 97.4197 116.542 97.4113C116.216 97.403 115.865 97.4675 115.487 97.6054C115.112 97.741 114.625 97.9657 114.025 98.28C113.339 98.6347 112.773 98.8961 112.327 99.0637C111.878 99.2299 111.438 99.3056 111.007 99.2917C110.579 99.2792 110.155 99.1334 109.733 98.8548C109.058 98.4077 108.714 97.8245 108.701 97.1049C108.691 96.3867 108.937 95.6484 109.439 94.8893C109.929 94.1488 110.46 93.6437 111.029 93.3734C111.599 93.1037 112.124 93.1274 112.603 93.444C112.948 93.6729 113.029 93.9631 112.845 94.3155C112.815 94.3939 112.788 94.4524 112.762 94.4919C112.729 94.5416 112.671 94.6108 112.59 94.6999C112.514 94.6159 112.439 94.5495 112.366 94.5012C112.267 94.4353 112.167 94.3865 112.068 94.3545C111.692 94.1548 111.305 94.1409 110.905 94.3127C110.506 94.4891 110.148 94.8164 109.831 95.2956C109.542 95.7325 109.393 96.1703 109.385 96.609C109.379 97.0492 109.599 97.4169 110.044 97.7113C110.358 97.9193 110.685 98.0223 111.024 98.0214C111.364 98.02 111.711 97.9471 112.067 97.8023C112.42 97.6602 112.894 97.4359 113.489 97.129C114.113 96.7938 114.661 96.5394 115.134 96.3667C115.603 96.1917 116.071 96.1099 116.538 96.1215C117.007 96.135 117.46 96.2859 117.897 96.5752C118.292 96.8365 118.594 97.1759 118.803 97.5933C119.013 98.0103 119.081 98.5033 119.009 99.073C118.935 99.6404 118.674 100.262 118.227 100.937ZM122.159 94.081C122.07 94.2574 121.942 94.3758 121.778 94.4367C121.613 94.4975 121.443 94.4831 121.266 94.3935L114.068 90.7516C113.458 90.4415 112.956 90.2586 112.561 90.2028C112.499 89.9387 112.526 89.6917 112.642 89.4623C112.736 89.278 112.862 89.1535 113.022 89.0899C113.18 89.0268 113.352 89.0417 113.537 89.1354L120.734 92.7922C121.377 93.119 121.878 93.301 122.235 93.3386C122.301 93.6042 122.276 93.8517 122.159 94.081ZM125.011 86.9152C124.647 87.9515 124.178 88.6647 123.604 89.0551C123.032 89.4456 122.443 89.5343 121.839 89.3216C121.297 89.1313 121.118 88.7752 121.302 88.2542C121.338 88.1507 121.372 88.068 121.404 88.0058C121.526 88.1024 121.717 88.186 121.974 88.2565C122.526 88.4177 123.031 88.3559 123.487 88.0704C123.943 87.7853 124.292 87.3024 124.531 86.6218C124.748 86.0057 124.777 85.4639 124.619 84.9959C124.459 84.5237 124.1 84.1894 123.54 83.9925C123.176 83.8644 122.835 83.8356 122.518 83.9067C122.2 83.9777 121.875 84.1263 121.543 84.3519C121.211 84.5748 120.793 84.9118 120.289 85.3627C119.709 85.8743 119.224 86.2657 118.832 86.5368C118.437 86.807 118.03 86.9881 117.608 87.0791C117.19 87.1715 116.742 87.1334 116.266 86.9658C115.502 86.697 115.026 86.2151 114.839 85.5205C114.654 84.8264 114.712 84.0506 115.014 83.1921C115.309 82.3545 115.7 81.7352 116.188 81.3345C116.675 80.9334 117.189 80.8284 117.73 81.0193C118.121 81.1567 118.27 81.4185 118.177 81.8053C118.168 81.8884 118.156 81.9525 118.14 81.9966C118.12 82.0528 118.081 82.134 118.024 82.2403C117.93 82.1772 117.841 82.1312 117.759 82.102C117.646 82.0625 117.538 82.0393 117.434 82.0323C117.02 81.9302 116.641 82.0114 116.295 82.2756C115.951 82.5435 115.684 82.9488 115.493 83.4902C115.319 83.9847 115.282 84.4457 115.381 84.8728C115.483 85.3014 115.785 85.6041 116.289 85.7814C116.644 85.9063 116.986 85.9268 117.315 85.8432C117.644 85.7592 117.963 85.6036 118.273 85.3766C118.581 85.1528 118.986 84.8194 119.488 84.3774C120.012 83.8997 120.481 83.5194 120.897 83.2367C121.31 82.9526 121.744 82.7594 122.199 82.6568C122.657 82.5556 123.133 82.5918 123.628 82.7654C124.075 82.9228 124.45 83.1782 124.755 83.532C125.06 83.8853 125.247 84.3468 125.316 84.9169C125.382 85.4857 125.28 86.1519 125.011 86.9152Z" fill="#333c4d"/>
<path d="M3.92174 41.6632C3.96492 41.5322 4.09121 41.5011 4.29967 41.5698C4.44267 41.6172 4.57453 41.6938 4.69478 41.7997C4.81689 41.9097 4.88189 42.0183 4.88885 42.1265L4.68132 42.4696C4.13485 43.3829 3.75785 44.0942 3.54939 44.6039L11.2468 47.1287C11.9409 47.3581 12.4692 47.4649 12.8314 47.4491C12.9354 47.7049 12.9465 47.9565 12.8648 48.2035C12.8026 48.3916 12.6944 48.529 12.5398 48.6168C12.3861 48.7017 12.2139 48.7124 12.0231 48.6493L3.17424 45.7391C3.08789 46.0906 3.0201 46.4448 2.97135 46.8023C2.9226 47.1598 2.86874 47.6176 2.80978 48.1766L2.77774 48.5132C2.70764 48.5959 2.5911 48.6432 2.42814 48.6553C2.26749 48.6715 2.11567 48.6562 1.97267 48.6089C1.76421 48.5401 1.68203 48.4385 1.7266 48.3043L3.92174 41.6632ZM16.2648 37.3235C16.3372 37.2682 16.4342 37.2459 16.555 37.2566C16.6799 37.2659 16.8001 37.2989 16.9152 37.356C17.042 37.4182 17.1335 37.4915 17.1901 37.5756C17.2495 37.661 17.257 37.7483 17.2124 37.8384L15.1036 42.1098C15.0107 42.2983 14.8826 42.4227 14.7206 42.4822C14.5595 42.5393 14.3844 42.5212 14.1959 42.4283L7.1476 38.9694C6.56771 38.6834 6.07928 38.5139 5.68185 38.461C5.63449 38.2804 5.62335 38.1155 5.64796 37.9665C5.6721 37.8175 5.74221 37.6262 5.85735 37.3927L7.85982 33.3367C7.89046 33.2749 7.94292 33.2396 8.01721 33.2308C8.09289 33.2262 8.17599 33.2461 8.26607 33.2907C8.39282 33.3529 8.50842 33.4448 8.61289 33.5665C8.71874 33.6923 8.76749 33.8093 8.7596 33.9175C7.90253 35.0865 7.18892 36.2375 6.61924 37.3699L10.1097 39.0933L11.7417 35.7885C11.8638 35.8173 11.9785 35.8582 12.0853 35.9111C12.1921 35.9636 12.2928 36.029 12.3871 36.1075L10.7621 39.3993L14.7377 41.3623C15.2824 40.2383 15.7912 38.8918 16.2648 37.3235ZM11.524 28.684L19.0268 33.898C19.6884 32.9323 20.3236 31.7855 20.9318 30.4576C21.0047 30.4247 21.1026 30.4237 21.2257 30.4562C21.3501 30.4855 21.4666 30.5384 21.5748 30.6136C21.6983 30.6995 21.7847 30.7905 21.833 30.8852C21.8812 30.9804 21.8771 31.0691 21.8195 31.1513L19.3267 34.7267C19.2065 34.8994 19.0616 35.003 18.8917 35.0378C18.7241 35.0698 18.5537 35.0257 18.3815 34.9055L11.8336 30.3629C11.2677 29.9683 10.7918 29.7152 10.4069 29.6033C10.3804 29.3285 10.4417 29.0843 10.5903 28.8707C10.7091 28.7008 10.8517 28.5977 11.0188 28.561C11.1832 28.5229 11.3517 28.5638 11.524 28.684ZM26.5803 24.447C26.6657 24.4154 26.7651 24.4219 26.8774 24.4669C26.9944 24.512 27.0998 24.5784 27.1936 24.6661C27.2971 24.7627 27.3635 24.8593 27.3932 24.9558C27.4257 25.0547 27.4072 25.1406 27.3389 25.214L24.0857 28.6938C23.9422 28.8475 23.7839 28.9292 23.6112 28.9394C23.4403 28.9473 23.2783 28.8795 23.1246 28.736L17.3767 23.3879C16.9041 22.9464 16.4858 22.6428 16.1204 22.4775C16.1274 22.2908 16.164 22.1297 16.2309 21.9942C16.2973 21.859 16.4194 21.6961 16.5972 21.5057L19.6866 18.2014C19.7335 18.1513 19.7938 18.1322 19.8676 18.1452C19.9415 18.1629 20.0153 18.206 20.0886 18.2748C20.1917 18.3709 20.2757 18.4925 20.3407 18.6392C20.4057 18.7901 20.4187 18.9164 20.3797 19.0176C19.2214 19.8891 18.206 20.7847 17.3331 21.704L20.1769 24.3625L22.6937 21.6705C22.8024 21.7332 22.9004 21.8057 22.9876 21.8869C23.0745 21.9686 23.152 22.0601 23.2198 22.1622L20.7126 24.8439L23.9515 27.8725C24.7974 26.9537 25.674 25.812 26.5803 24.447ZM32.6457 21.3237C31.582 22.1334 30.4863 22.3883 29.3581 22.0875C28.2322 21.7852 27.143 20.9425 26.0895 19.5594C25.0365 18.1759 24.5184 16.8944 24.5346 15.7142C24.5514 14.5345 25.0885 13.5414 26.1471 12.7354C26.5441 12.4331 26.9619 12.1996 27.4007 12.0352C27.8394 11.8709 28.2392 11.797 28.5995 11.8147C28.9556 11.8314 29.2114 11.9424 29.3674 12.1471C29.4946 12.3143 29.5299 12.5083 29.4732 12.7289C29.4147 12.9471 29.2606 13.1333 29.0113 13.2879C28.6334 12.9206 28.2248 12.7289 27.786 12.7122C27.345 12.6968 26.9183 12.8463 26.5065 13.1602C24.9808 14.3218 25.1953 16.1855 27.1495 18.752C29.0981 21.3112 30.8313 22.0127 32.3495 20.8571C33.0311 20.338 33.3147 19.747 33.2005 19.0845C33.0886 18.4247 32.7966 17.7849 32.3254 17.1656C31.5932 16.2045 30.8842 15.8846 30.198 16.2059C30.1395 16.0615 30.1423 15.9176 30.2064 15.7737C30.2732 15.6283 30.3902 15.4918 30.5574 15.3646C30.9144 15.0925 31.3179 15.0141 31.7682 15.1288C32.2227 15.2444 32.6884 15.6153 33.1657 16.2417C33.565 16.7663 33.8366 17.3304 33.981 17.934C34.13 18.5389 34.1017 19.136 33.8965 19.7261C33.6917 20.312 33.2748 20.8446 32.6457 21.3237ZM43.62 13.6245C43.7277 13.7029 43.8141 13.8051 43.8786 13.9304C43.9882 14.1426 43.9859 14.3539 43.8721 14.5642C43.7551 14.7764 43.608 14.9282 43.4292 15.0206C43.1028 15.1887 42.7894 15.2179 42.4895 15.1079C42.1919 14.9964 41.8311 14.7592 41.4068 14.3952L39.9847 13.1374C39.7038 12.9007 39.4702 12.7247 39.2836 12.6091C39.0923 12.4921 38.8602 12.4285 38.5862 12.4178C38.3095 12.4085 37.9901 12.4977 37.6275 12.6848L36.6339 13.1811L37.9734 15.7792C38.083 15.9909 38.2227 16.2277 38.3931 16.4896C38.5589 16.75 38.7158 16.9446 38.8634 17.0732C38.8309 17.1679 38.7747 17.2673 38.6944 17.3722C38.6132 17.4743 38.5055 17.5598 38.3713 17.6289C38.1846 17.725 38.0068 17.7501 37.8378 17.7028C37.6688 17.6559 37.5328 17.5458 37.4292 17.3731L33.6945 10.1317C33.5854 9.91994 33.4457 9.67944 33.2753 9.41062C33.1035 9.14597 32.941 8.9403 32.7873 8.79358C33.0603 8.40544 33.663 7.97133 34.5943 7.49126C35.8632 6.83662 36.9009 6.55201 37.7078 6.63744C38.5171 6.72147 39.1508 7.20665 39.6081 8.09344C39.9373 8.7323 40.0325 9.36837 39.8927 10.0017C39.7535 10.6349 39.4136 11.1916 38.8736 11.6712C39.2293 11.6007 39.5617 11.629 39.8705 11.7557C40.1783 11.8867 40.5028 12.0882 40.8445 12.3602L42.3186 13.5859C42.5615 13.7893 42.7592 13.9202 42.9129 13.9787C43.0685 14.0395 43.205 14.0451 43.3238 13.9945C43.4826 13.9123 43.5815 13.7893 43.62 13.6245ZM36.3879 12.7043L37.432 12.1819C38.0732 11.83 38.4943 11.3425 38.6958 10.7199C38.8982 10.0996 38.8277 9.45612 38.4841 8.78987C38.109 8.06187 37.634 7.62729 37.0592 7.48569C36.4849 7.34408 35.7643 7.49683 34.897 7.94394C34.5511 8.12269 34.3041 8.26708 34.157 8.37851L36.3879 12.7043ZM52.5055 11.076C52.708 11.3583 52.8909 11.5482 53.0557 11.6452C52.9489 11.875 52.7535 12.0338 52.4684 12.1216C52.2855 12.1782 52.1155 12.1861 51.9586 12.1457C51.7989 12.1063 51.6759 12.0162 51.5895 11.875L49.8438 9.31033L46.0965 10.4645L46.1128 13.0752C46.1207 13.3027 46.1406 13.4689 46.1731 13.5739C46.22 13.7266 46.2827 13.8288 46.3612 13.8803C46.1861 14.0163 45.9879 14.1185 45.766 14.1867C45.3281 14.3218 45.0547 14.2123 44.9456 13.8585C44.9075 13.7354 44.8899 13.5061 44.8913 13.1709L45.18 3.33451C45.4563 3.11165 45.7516 2.95147 46.0668 2.85444C46.4415 2.73883 46.7154 2.81219 46.8881 3.07405L52.5055 11.076ZM46.0961 9.71147L49.4338 8.68308L46.0487 3.70733L46.0961 9.71147ZM64.5974 8.66915C64.6805 9.38276 64.8035 9.90694 64.9656 10.2422C64.7775 10.4441 64.5542 10.5602 64.2956 10.5904C64.1085 10.6122 63.9474 10.5709 63.8118 10.4669C63.6795 10.3619 63.602 10.2101 63.5787 10.0105L62.5722 1.63569L60.1597 9.26297C59.9336 9.3809 59.7205 9.45147 59.5209 9.47515C59.3435 9.49558 59.1806 9.47979 59.032 9.42779C57.6656 7.43601 56.2133 5.16147 54.6765 2.60512L55.5225 9.72865C55.6093 10.4734 55.7402 11.0268 55.9152 11.3889C55.789 11.5236 55.632 11.602 55.4454 11.6239C55.1552 11.6578 54.989 11.4906 54.9458 11.1229L53.9717 2.9004C53.8896 2.19608 53.7953 1.64776 53.6899 1.2559C53.7944 1.12358 54.0507 1.03351 54.4592 0.986153C54.7271 0.954581 54.9454 1.00983 55.1134 1.15144L56.6516 3.61122L59.6258 8.30144C59.7744 7.84179 60.2805 6.19869 61.1445 3.37119C61.3618 2.63158 61.5503 2.00155 61.7105 1.48062C61.8711 0.959224 62.002 0.538117 62.1032 0.216831C62.3029 0.111439 62.5411 0.04226 62.8187 0.0102242C63.0086 -0.0120615 63.1795 0.00279568 63.3308 0.0543314C63.4826 0.109581 63.569 0.186189 63.5899 0.284617L64.5974 8.66915ZM78.876 11.4098C78.9266 11.7539 79.0033 12.006 79.1049 12.1675C78.9053 12.3235 78.6587 12.3755 78.3653 12.3235C78.1768 12.2901 78.0222 12.2195 77.9006 12.1123C77.7766 12.0041 77.7084 11.8676 77.6958 11.7033L77.3137 8.62412L73.4527 7.94022L72.2753 10.2705C72.1782 10.4762 72.1202 10.6331 72.1012 10.7413C72.0733 10.8991 72.0826 11.0184 72.1286 11.1002C71.9108 11.141 71.688 11.1415 71.4591 11.1011C71.0082 11.0212 70.8146 10.7988 70.8792 10.4344C70.9019 10.3076 70.9901 10.0954 71.1447 9.79783L75.8925 1.1779C76.2403 1.10594 76.576 1.09851 76.9005 1.15562C77.2868 1.22433 77.4966 1.41422 77.531 1.72622L78.876 11.4098ZM73.7963 7.2698L77.2352 7.87847L76.4952 1.90637L73.7963 7.2698ZM81.2806 13.2122C81.0818 13.1425 80.9314 13.0269 80.8284 12.8644C81.0633 12.564 81.3075 12.0515 81.5615 11.3258L83.8086 4.84622C84.0728 4.09083 84.2353 3.52255 84.2956 3.14137C84.4312 3.08565 84.6267 3.10283 84.8811 3.19197C85.071 3.2579 85.1755 3.31965 85.1954 3.37676C86.6398 8.5698 87.5159 11.9665 87.8237 13.5669L90.0435 6.43919C90.1377 6.11326 90.2566 5.84908 90.4005 5.64665C90.5486 5.44237 90.7032 5.33187 90.8653 5.31562C90.9071 5.32026 90.9753 5.33883 91.07 5.37226C91.1917 5.41451 91.2887 5.46883 91.3625 5.5343C91.317 5.63505 91.2553 5.82587 91.1768 6.10769L91.0315 6.56547L88.51 13.7721C88.256 14.4978 88.0949 15.0345 88.0262 15.3827C87.9709 15.4166 87.8869 15.4292 87.7741 15.4194C87.6599 15.4129 87.5512 15.3911 87.4472 15.3549C87.3553 15.3228 87.2689 15.2708 87.1877 15.1993C86.6565 13.7535 86.1528 12.0993 85.6774 10.2375C85.2029 8.37247 84.8147 6.67922 84.5125 5.1573L82.1047 12.7228C82.0411 12.9332 81.9278 13.0813 81.7648 13.1672C81.6019 13.253 81.4403 13.2679 81.2806 13.2122ZM97.089 19.7456C97.0161 20.085 96.999 20.3483 97.0375 20.5354C96.7961 20.611 96.5467 20.573 96.29 20.4216C96.1252 20.3241 96.0054 20.2039 95.9292 20.0604C95.8512 19.9155 95.835 19.7642 95.8814 19.6054L96.6048 16.588L93.2299 14.5925L91.3091 16.3605C91.1462 16.5193 91.0366 16.6456 90.9809 16.7403C90.8992 16.8782 90.8657 16.9933 90.8801 17.0857C90.6624 17.0477 90.453 16.9697 90.2533 16.8517C89.8587 16.6182 89.7561 16.3424 89.9446 16.0234C90.0101 15.9129 90.1675 15.7453 90.4168 15.5211L97.889 9.11765C98.2395 9.17197 98.5571 9.28294 98.8403 9.45054C99.1783 9.65019 99.3083 9.9023 99.2303 10.2059L97.089 19.7456ZM93.7866 14.085L96.7933 15.8628L98.1973 10.0109L93.7866 14.085ZM105.71 15.009L99.9927 22.1348C100.91 22.8614 102.01 23.5741 103.293 24.2724C103.322 24.3472 103.316 24.4451 103.275 24.5654C103.237 24.6879 103.176 24.8003 103.094 24.9034C102.999 25.0204 102.903 25.1002 102.805 25.142C102.707 25.1838 102.619 25.1731 102.54 25.1104L99.1449 22.3772C98.9815 22.2453 98.8877 22.0935 98.8649 21.9222C98.8445 21.7523 98.8997 21.5856 99.0316 21.4217L104.014 15.2021C104.447 14.6645 104.732 14.2076 104.87 13.8311C105.146 13.8237 105.385 13.9012 105.588 14.0646C105.75 14.1946 105.843 14.3441 105.868 14.5131C105.895 14.6798 105.842 14.8451 105.71 15.009ZM115.289 25.4614L109.284 26.9532L107.786 28.3066C107.274 28.7695 106.919 29.1757 106.724 29.5258C106.626 29.5207 106.517 29.4933 106.395 29.4427C106.274 29.3874 106.163 29.3053 106.064 29.1957C105.923 29.0397 105.855 28.8753 105.859 28.7022C105.864 28.529 105.94 28.3753 106.089 28.2407L108.479 26.0622C108.518 25.922 108.549 25.8203 108.572 25.7572L110.821 20.1157C110.91 19.9002 110.968 19.6165 110.998 19.2651C111.133 19.2651 111.282 19.2939 111.443 19.351C111.6 19.4076 111.743 19.507 111.871 19.649C112.012 19.805 112.082 19.9643 112.08 20.1263C112.078 20.2884 112.03 20.4806 111.935 20.702L109.659 26.0687L114.872 24.4874C115.109 24.4084 115.272 24.3286 115.36 24.2487C115.472 24.148 115.542 24.0379 115.57 23.9195C115.748 23.9999 115.925 24.1364 116.099 24.3295C116.225 24.4693 116.282 24.6132 116.267 24.7613C116.253 24.9094 116.187 25.044 116.067 25.1643C115.927 25.2906 115.668 25.3899 115.289 25.4614ZM111.256 36.0202C110.645 35.0963 110.356 34.2847 110.389 33.585C110.423 32.8854 110.711 32.3565 111.253 31.9977C111.734 31.6792 112.129 31.753 112.437 32.2187C112.498 32.3101 112.544 32.3886 112.576 32.454C112.423 32.4954 112.239 32.5984 112.024 32.7628C111.56 33.1078 111.304 33.5502 111.255 34.0907C111.203 34.6325 111.379 35.2087 111.783 35.8183C112.147 36.368 112.566 36.7204 113.042 36.8759C113.519 37.0342 114.008 36.9483 114.507 36.6173C114.832 36.4028 115.062 36.1447 115.198 35.8443C115.335 35.5462 115.414 35.1952 115.432 34.7913C115.456 34.3887 115.439 33.8464 115.383 33.1644C115.324 32.3872 115.305 31.7585 115.326 31.278C115.349 30.7961 115.452 30.3573 115.634 29.9618C115.814 29.568 116.117 29.23 116.544 28.9478C117.227 28.496 117.904 28.4073 118.575 28.6817C119.248 28.9547 119.838 29.4733 120.344 30.2375C120.84 30.9888 121.101 31.6815 121.127 32.3162C121.153 32.9531 120.924 33.4318 120.44 33.7522C120.089 33.9843 119.788 33.9435 119.534 33.6292C119.473 33.5758 119.428 33.5284 119.401 33.4862C119.368 33.4365 119.327 33.3562 119.28 33.2443C119.387 33.2071 119.477 33.1644 119.551 33.1161C119.65 33.0502 119.734 32.9778 119.802 32.8988C120.138 32.6277 120.303 32.2716 120.298 31.8314C120.297 31.3918 120.136 30.9303 119.815 30.446C119.523 30.0035 119.173 29.6934 118.765 29.5156C118.36 29.3354 117.933 29.3949 117.483 29.6925C117.166 29.9023 116.942 30.1633 116.81 30.4762C116.678 30.7933 116.607 31.1448 116.599 31.5301C116.592 31.9183 116.615 32.4494 116.666 33.1231C116.729 33.8339 116.749 34.4435 116.725 34.9524C116.701 35.457 116.592 35.9241 116.399 36.3536C116.202 36.7844 115.884 37.1457 115.445 37.4363C115.044 37.7014 114.607 37.849 114.135 37.8797C113.665 37.9085 113.18 37.7762 112.681 37.4818C112.183 37.1902 111.708 36.7032 111.256 36.0202ZM114.749 42.0039C114.658 41.8252 114.636 41.6511 114.684 41.4825C114.732 41.314 114.846 41.184 115.025 41.093L122.278 37.382C122.894 37.069 123.342 36.7691 123.622 36.4822C123.876 36.5885 124.063 36.758 124.181 36.9901C124.275 37.1749 124.3 37.3523 124.256 37.5222C124.214 37.6879 124.099 37.8189 123.912 37.914L116.649 41.6079C115.998 41.9394 115.55 42.2407 115.308 42.5119C115.053 42.4055 114.867 42.2361 114.749 42.0039ZM117.11 48.1618C116.742 47.1171 116.659 46.2596 116.862 45.5892C117.064 44.9187 117.472 44.4753 118.084 44.2594C118.629 44.0672 118.994 44.2344 119.18 44.7613C119.216 44.8649 119.242 44.9522 119.257 45.0232C119.099 45.026 118.895 45.0812 118.647 45.1889C118.113 45.4104 117.757 45.7776 117.578 46.2898C117.396 46.8033 117.427 47.4045 117.67 48.094C117.89 48.7152 118.211 49.1595 118.635 49.426C119.059 49.6953 119.554 49.7306 120.119 49.5309C120.486 49.4014 120.772 49.2073 120.977 48.9487C121.183 48.6934 121.344 48.3716 121.46 47.9849C121.581 47.5995 121.697 47.0693 121.808 46.3947C121.939 45.6263 122.074 45.0116 122.21 44.5505C122.35 44.0886 122.557 43.6879 122.83 43.3485C123.1 43.0105 123.476 42.7565 123.958 42.5862C124.73 42.3136 125.409 42.3921 125.993 42.8215C126.58 43.2501 127.026 43.8964 127.331 44.7604C127.63 45.6096 127.715 46.345 127.585 46.9667C127.456 47.5911 127.118 48.0002 126.57 48.1933C126.174 48.3331 125.891 48.2198 125.722 47.8539C125.675 47.7871 125.643 47.73 125.626 47.6826C125.607 47.6264 125.587 47.5387 125.568 47.4189C125.681 47.4087 125.779 47.3892 125.862 47.3599C125.975 47.3205 126.073 47.2703 126.159 47.2104C126.55 47.0289 126.797 46.7239 126.899 46.2953C127.005 45.8686 126.961 45.3816 126.768 44.8342C126.591 44.3342 126.327 43.9484 125.975 43.6763C125.626 43.4038 125.197 43.3569 124.688 43.5365C124.33 43.6628 124.049 43.862 123.845 44.1336C123.64 44.4089 123.486 44.7325 123.384 45.1044C123.284 45.4796 123.176 46 123.062 46.6658C122.951 47.3706 122.822 47.9668 122.674 48.4547C122.529 48.9385 122.31 49.3652 122.018 49.7348C121.723 50.1048 121.327 50.3778 120.829 50.5533C120.377 50.713 119.917 50.7502 119.451 50.6652C118.988 50.5788 118.55 50.3328 118.137 49.926C117.725 49.5221 117.383 48.9343 117.11 48.1618Z" fill="#333c4d"/>
<path d="M1.65002 66.1691C1.65002 63.9377 3.45888 62.1289 5.69024 62.1289C7.9216 62.1289 9.73045 63.9377 9.73045 66.1691C9.73045 68.4005 7.9216 70.2093 5.69024 70.2093C3.45888 70.2093 1.65002 68.4005 1.65002 66.1691ZM120.269 66.1691C120.269 63.9377 122.078 62.1289 124.31 62.1289C126.541 62.1289 128.35 63.9377 128.35 66.1691C128.35 68.4005 126.541 70.2093 124.31 70.2093C122.078 70.2093 120.269 68.4005 120.269 66.1691Z" fill="#333c4d"/>
</g>
</g>
</g>
</g>
</g>
<defs>
<clipPath id="clip0_320_2408">
<rect width="130" height="130" fill="white"/>
</clipPath>
<clipPath id="clip1_320_2408">
<rect width="130" height="130" fill="white"/>
</clipPath>
<clipPath id="clip2_320_2408">
<rect width="130" height="130" fill="white"/>
</clipPath>
<clipPath id="clip3_320_2408">
<rect width="130" height="130" fill="white"/>
</clipPath>
<clipPath id="clip4_320_2408">
<rect width="130" height="130" fill="white"/>
</clipPath>
<clipPath id="clip5_320_2408">
<rect width="61.2826" height="61.2826" fill="white" transform="translate(34.3586 34.3587)"/>
</clipPath>
<clipPath id="clip6_320_2408">
<rect width="61.2826" height="61.2826" fill="white" transform="translate(34.3586 34.3587)"/>
</clipPath>
</defs>
</svg>
